<mxfile host="65bd71144e">
    <diagram id="dJX2Co95F9wgzYGJDOl9" name="第 1 页">
        <mxGraphModel dx="714" dy="397" grid="0" gridSize="10" guides="1" tooltips="1" connect="1" arrows="1" fold="1" page="0" pageScale="1" pageWidth="827" pageHeight="1169" background="#ffffff" math="0" shadow="0">
            <root>
                <mxCell id="0"/>
                <mxCell id="1" parent="0"/>
                <mxCell id="7" style="edgeStyle=orthogonalEdgeStyle;html=1;exitX=1;exitY=0.5;exitDx=0;exitDy=0;entryX=0;entryY=0.5;entryDx=0;entryDy=0;strokeWidth=1.5;fontFamily=JetBrains Mono;fillColor=#f5f5f5;strokeColor=#666666;curved=1;" edge="1" parent="1" source="2" target="5">
                    <mxGeometry relative="1" as="geometry"/>
                </mxCell>
                <mxCell id="2" value="a" style="rounded=0;whiteSpace=wrap;html=1;fontFamily=JetBrains Mono;strokeWidth=1.5;fillColor=#f5f5f5;fontColor=#333333;strokeColor=#666666;" vertex="1" parent="1">
                    <mxGeometry x="154" y="44" width="50" height="30" as="geometry"/>
                </mxCell>
                <mxCell id="8" style="edgeStyle=orthogonalEdgeStyle;html=1;exitX=1;exitY=0.5;exitDx=0;exitDy=0;entryX=0;entryY=0.5;entryDx=0;entryDy=0;strokeWidth=1.5;fontFamily=JetBrains Mono;fillColor=#f5f5f5;strokeColor=#666666;curved=1;" edge="1" parent="1" source="3" target="5">
                    <mxGeometry relative="1" as="geometry"/>
                </mxCell>
                <mxCell id="3" value="b" style="rounded=0;whiteSpace=wrap;html=1;strokeWidth=1.5;fontFamily=JetBrains Mono;fillColor=#f5f5f5;fontColor=#333333;strokeColor=#666666;" vertex="1" parent="1">
                    <mxGeometry x="154" y="94" width="50" height="30" as="geometry"/>
                </mxCell>
                <mxCell id="5" value="{n: 1}" style="ellipse;whiteSpace=wrap;html=1;aspect=fixed;strokeWidth=1.5;fontFamily=JetBrains Mono;fillColor=#f5f5f5;fontColor=#333333;strokeColor=#666666;" vertex="1" parent="1">
                    <mxGeometry x="294" y="54" width="60" height="60" as="geometry"/>
                </mxCell>
            </root>
        </mxGraphModel>
    </diagram>
    <diagram id="TTYNJp-0qS5PaRFd4l4L" name="第 2 页">
        <mxGraphModel dx="714" dy="397" grid="0" gridSize="10" guides="1" tooltips="1" connect="1" arrows="1" fold="1" page="0" pageScale="1" pageWidth="827" pageHeight="1169" background="#ffffff" math="0" shadow="0">
            <root>
                <mxCell id="FwjyzIYFYzI29aUSLVnT-0"/>
                <mxCell id="FwjyzIYFYzI29aUSLVnT-1" parent="FwjyzIYFYzI29aUSLVnT-0"/>
                <mxCell id="7mAJ6Zjn9EtZE73V8439-0" style="edgeStyle=orthogonalEdgeStyle;html=1;exitX=1;exitY=0.5;exitDx=0;exitDy=0;entryX=0;entryY=0.5;entryDx=0;entryDy=0;strokeWidth=1.5;fontFamily=JetBrains Mono;fillColor=#f5f5f5;strokeColor=#666666;curved=1;" edge="1" parent="FwjyzIYFYzI29aUSLVnT-1" source="7mAJ6Zjn9EtZE73V8439-1" target="7mAJ6Zjn9EtZE73V8439-4">
                    <mxGeometry relative="1" as="geometry"/>
                </mxCell>
                <mxCell id="7mAJ6Zjn9EtZE73V8439-1" value="a" style="rounded=0;whiteSpace=wrap;html=1;fontFamily=JetBrains Mono;strokeWidth=1.5;fillColor=#f5f5f5;fontColor=#333333;strokeColor=#666666;" vertex="1" parent="FwjyzIYFYzI29aUSLVnT-1">
                    <mxGeometry x="154" y="44" width="50" height="30" as="geometry"/>
                </mxCell>
                <mxCell id="7mAJ6Zjn9EtZE73V8439-2" style="edgeStyle=orthogonalEdgeStyle;html=1;exitX=1;exitY=0.5;exitDx=0;exitDy=0;entryX=0;entryY=0.5;entryDx=0;entryDy=0;strokeWidth=1.5;fontFamily=JetBrains Mono;fillColor=#f5f5f5;strokeColor=#666666;curved=1;" edge="1" parent="FwjyzIYFYzI29aUSLVnT-1" source="7mAJ6Zjn9EtZE73V8439-3" target="7mAJ6Zjn9EtZE73V8439-4">
                    <mxGeometry relative="1" as="geometry"/>
                </mxCell>
                <mxCell id="7mAJ6Zjn9EtZE73V8439-3" value="b" style="rounded=0;whiteSpace=wrap;html=1;strokeWidth=1.5;fontFamily=JetBrains Mono;fillColor=#f5f5f5;fontColor=#333333;strokeColor=#666666;" vertex="1" parent="FwjyzIYFYzI29aUSLVnT-1">
                    <mxGeometry x="154" y="94" width="50" height="30" as="geometry"/>
                </mxCell>
                <mxCell id="7mAJ6Zjn9EtZE73V8439-4" value="&lt;font style=&quot;font-size: 9px&quot;&gt;n: 2 &lt;br&gt;x:undefined&lt;/font&gt;" style="ellipse;whiteSpace=wrap;html=1;aspect=fixed;strokeWidth=1.5;fontFamily=JetBrains Mono;fillColor=#f5f5f5;fontColor=#333333;strokeColor=#666666;" vertex="1" parent="FwjyzIYFYzI29aUSLVnT-1">
                    <mxGeometry x="284" y="47" width="74" height="74" as="geometry"/>
                </mxCell>
            </root>
        </mxGraphModel>
    </diagram>
    <diagram id="YjrjSfc7haY3DNkOKN3p" name="第 3 页">
        <mxGraphModel dx="714" dy="397" grid="0" gridSize="10" guides="1" tooltips="1" connect="1" arrows="1" fold="1" page="0" pageScale="1" pageWidth="827" pageHeight="1169" background="#ffffff" math="0" shadow="0">
            <root>
                <mxCell id="FzhBmNNxntoIGxKnfHxB-0"/>
                <mxCell id="FzhBmNNxntoIGxKnfHxB-1" parent="FzhBmNNxntoIGxKnfHxB-0"/>
                <mxCell id="DC1xbZCKSLq2k0k9WDZa-0" style="edgeStyle=orthogonalEdgeStyle;html=1;exitX=1;exitY=0.5;exitDx=0;exitDy=0;entryX=0;entryY=0.5;entryDx=0;entryDy=0;strokeWidth=1.5;fontFamily=JetBrains Mono;fillColor=#f5f5f5;strokeColor=#666666;curved=1;" edge="1" parent="FzhBmNNxntoIGxKnfHxB-1" source="DC1xbZCKSLq2k0k9WDZa-1" target="DC1xbZCKSLq2k0k9WDZa-5">
                    <mxGeometry relative="1" as="geometry"/>
                </mxCell>
                <mxCell id="DC1xbZCKSLq2k0k9WDZa-1" value="a" style="rounded=0;whiteSpace=wrap;html=1;fontFamily=JetBrains Mono;strokeWidth=1.5;fillColor=#f5f5f5;fontColor=#333333;strokeColor=#666666;" vertex="1" parent="FzhBmNNxntoIGxKnfHxB-1">
                    <mxGeometry x="154" y="44" width="50" height="30" as="geometry"/>
                </mxCell>
                <mxCell id="DC1xbZCKSLq2k0k9WDZa-2" style="edgeStyle=orthogonalEdgeStyle;html=1;exitX=1;exitY=0.5;exitDx=0;exitDy=0;entryX=0;entryY=0.5;entryDx=0;entryDy=0;strokeWidth=1.5;fontFamily=JetBrains Mono;fillColor=#f5f5f5;strokeColor=#666666;curved=1;" edge="1" parent="FzhBmNNxntoIGxKnfHxB-1" source="DC1xbZCKSLq2k0k9WDZa-3" target="DC1xbZCKSLq2k0k9WDZa-4">
                    <mxGeometry relative="1" as="geometry"/>
                </mxCell>
                <mxCell id="DC1xbZCKSLq2k0k9WDZa-3" value="b" style="rounded=0;whiteSpace=wrap;html=1;strokeWidth=1.5;fontFamily=JetBrains Mono;fillColor=#f5f5f5;fontColor=#333333;strokeColor=#666666;" vertex="1" parent="FzhBmNNxntoIGxKnfHxB-1">
                    <mxGeometry x="154" y="94" width="50" height="30" as="geometry"/>
                </mxCell>
                <mxCell id="DC1xbZCKSLq2k0k9WDZa-4" value="&lt;font style=&quot;font-size: 9px&quot;&gt;n: 2 &lt;br&gt;x:undefined&lt;/font&gt;" style="ellipse;whiteSpace=wrap;html=1;aspect=fixed;strokeWidth=1.5;fontFamily=JetBrains Mono;fillColor=#f5f5f5;fontColor=#333333;strokeColor=#666666;" vertex="1" parent="FzhBmNNxntoIGxKnfHxB-1">
                    <mxGeometry x="280" y="94" width="74" height="74" as="geometry"/>
                </mxCell>
                <mxCell id="DC1xbZCKSLq2k0k9WDZa-5" value="&lt;font size=&quot;1&quot;&gt;l:2&lt;/font&gt;" style="ellipse;whiteSpace=wrap;html=1;aspect=fixed;strokeWidth=1.5;fontFamily=JetBrains Mono;fillColor=#f5f5f5;fontColor=#333333;strokeColor=#666666;" vertex="1" parent="FzhBmNNxntoIGxKnfHxB-1">
                    <mxGeometry x="294.5" y="36.5" width="45" height="45" as="geometry"/>
                </mxCell>
                <mxCell id="DC1xbZCKSLq2k0k9WDZa-8" style="edgeStyle=orthogonalEdgeStyle;html=1;exitX=1;exitY=0.5;exitDx=0;exitDy=0;entryX=0;entryY=0.5;entryDx=0;entryDy=0;strokeWidth=1.5;fontFamily=JetBrains Mono;fillColor=#f5f5f5;strokeColor=#666666;curved=1;" edge="1" parent="FzhBmNNxntoIGxKnfHxB-1" source="DC1xbZCKSLq2k0k9WDZa-6" target="DC1xbZCKSLq2k0k9WDZa-4">
                    <mxGeometry relative="1" as="geometry"/>
                </mxCell>
                <mxCell id="DC1xbZCKSLq2k0k9WDZa-6" value="a.x" style="rounded=0;whiteSpace=wrap;html=1;strokeWidth=1.5;fontFamily=JetBrains Mono;fillColor=#f5f5f5;fontColor=#333333;strokeColor=#666666;" vertex="1" parent="FzhBmNNxntoIGxKnfHxB-1">
                    <mxGeometry x="154" y="144" width="50" height="30" as="geometry"/>
                </mxCell>
            </root>
        </mxGraphModel>
    </diagram>
</mxfile>